<svg xmlns="http://www.w3.org/2000/svg" width="1400" height="900" viewBox="0 0 1400 900">
  <defs>
    <linearGradient id="g" x1="0" x2="1" y1="0" y2="1">
      <stop offset="0" stop-color="#5483ff"/>
      <stop offset="1" stop-color="#a259ff"/>
    </linearGradient>
    <filter id="blur" x="-20%" y="-20%" width="140%" height="140%">
      <feGaussianBlur stdDeviation="28"/>
    </filter>
  </defs>
  <rect width="1400" height="900" fill="#f8fafc"/>
  <circle cx="360" cy="220" r="200" fill="url(#g)" opacity="0.45" filter="url(#blur)"/>
  <circle cx="1040" cy="260" r="240" fill="url(#g)" opacity="0.28" filter="url(#blur)"/>
  <circle cx="820" cy="720" r="260" fill="#5a8bff" opacity="0.12" filter="url(#blur)"/>
  <g opacity="0.95">
    <rect x="170" y="180" width="1060" height="560" rx="42" fill="rgba(255,255,255,0.72)" stroke="rgba(15,23,42,0.12)"/>
    <rect x="230" y="250" width="520" height="70" rx="18" fill="rgba(15,23,42,0.06)"/>
    <rect x="230" y="340" width="720" height="18" rx="9" fill="rgba(15,23,42,0.10)"/>
    <rect x="230" y="375" width="660" height="18" rx="9" fill="rgba(15,23,42,0.08)"/>
    <rect x="230" y="420" width="360" height="44" rx="18" fill="url(#g)" opacity="0.85"/>
    <rect x="620" y="420" width="190" height="44" rx="18" fill="rgba(15,23,42,0.06)"/>
    <rect x="870" y="260" width="300" height="300" rx="38" fill="rgba(255,255,255,0.66)" stroke="rgba(15,23,42,0.12)"/>
    <circle cx="1020" cy="410" r="86" fill="url(#g)" opacity="0.55"/>
  </g>
  <text x="230" y="245" fill="rgba(15,23,42,0.90)" font-size="22" font-family="ui-sans-serif, system-ui" font-weight="700">AI Avatar Generator</text>
  <text x="230" y="305" fill="rgba(71,85,105,0.88)" font-size="16" font-family="ui-sans-serif, system-ui">Featured • Glass UI • Daylight design</text>
</svg>
